<?xml version="1.0" standalone="no"?>
<!DOCTYPE svg PUBLIC "-//W3C//DTD SVG 20010904//EN"
 "http://www.w3.org/TR/2001/REC-SVG-20010904/DTD/svg10.dtd">
<svg version="1.0" xmlns="http://www.w3.org/2000/svg"
 width="240.000000pt" height="241.000000pt" viewBox="0 0 240.000000 241.000000"
 preserveAspectRatio="xMidYMid meet">

<g transform="translate(0.000000,241.000000) scale(0.100000,-0.100000)"
fill="#000000" stroke="none">
<path d="M1085 2259 c-243 -26 -467 -139 -641 -322 -192 -201 -286 -438 -286
-717 0 -199 47 -372 148 -542 67 -114 238 -285 352 -352 170 -101 343 -148
542 -148 199 0 372 47 542 148 114 67 285 238 352 352 101 170 148 343 148
542 0 199 -47 372 -148 542 -67 114 -238 285 -352 352 -196 116 -436 169 -657
145z m-74 -658 c39 -40 39 -82 0 -122 -48 -48 -116 -38 -147 22 -12 24 -13 37
-4 62 24 70 99 89 151 38z m490 -223 c69 -39 79 -74 79 -292 l0 -187 -77 3
-78 3 -5 161 c-6 181 -10 194 -69 194 -72 0 -75 -8 -81 -192 l-5 -163 -77 -3
-78 -3 0 246 0 245 75 0 c75 0 75 0 75 -27 l0 -26 23 20 c38 35 60 42 121 43
42 0 69 -6 97 -22z m-473 -230 l-3 -243 -77 -3 -78 -3 0 246 0 245 80 0 80 0
-2 -242z"/>
</g>
</svg>
